<svg width="52" height="36" viewBox="0 0 52 36" fill="none" xmlns="http://www.w3.org/2000/svg">
<path d="M51.1307 24.9312C48.7643 24.8756 46.4336 25.5156 44.4274 26.7719C44.047 26.9816 43.6717 27.1888 43.2774 27.3785L51.5839 17.3916C52.024 16.8771 52.1242 16.1534 51.8405 15.5387C51.5567 14.9239 50.9411 14.5307 50.264 14.5317H42.746L33.6127 7.88908L33.1707 7.00604C32.2949 5.24027 30.4914 4.12588 28.5204 4.13228H19.6011L18.7346 2.39901H23.3988C23.8774 2.39901 24.2654 2.01096 24.2654 1.53242C24.2654 1.05388 23.8774 0.665833 23.3988 0.665833H13.8659C13.3873 0.665833 12.9993 1.05378 12.9993 1.53242C12.9993 2.01106 13.3873 2.39901 13.8659 2.39901H16.7968L17.6634 4.13228H13.8659C12.4301 4.13228 11.266 5.29623 11.266 6.73215C11.266 8.16806 12.43 9.33201 13.8659 9.33201H15.0636L12.4637 14.5317H11.6994C11.1541 14.5329 10.6409 14.7895 10.3128 15.2251L8.23293 17.9983H6.74228C6.44705 17.9982 6.17203 18.1484 6.01259 18.3969L1.79736 24.9642C1.49837 24.9468 1.19675 24.9313 0.866587 24.9313C0.387948 24.9313 0 25.3192 0 25.7979C0 26.2765 0.387948 26.6645 0.866587 26.6645C2.93886 26.6146 4.97945 27.1804 6.73019 28.2903C8.73595 29.5469 11.0665 30.1869 13.4327 30.131C15.2871 30.1847 17.1275 29.7933 18.7997 28.9897L18.8118 28.9836C19.2737 28.7609 19.7053 28.5243 20.1317 28.2903C21.8813 27.1809 23.9207 26.6151 25.9917 26.6645C28.0648 26.6144 30.1063 27.1802 31.8579 28.2903C33.865 29.5472 36.1971 30.1872 38.5646 30.131C40.931 30.1866 43.2617 29.5466 45.2679 28.2903C47.0185 27.1809 49.0586 26.6152 51.1306 26.6645C51.6092 26.6645 51.9972 26.2765 51.9972 25.7979C51.9972 25.3192 51.6093 24.9312 51.1307 24.9312ZM32.6499 9.33201L35.0332 11.0653H25.132C24.6534 11.0653 24.2655 10.6773 24.2655 10.1987V9.33211H32.6499V9.33201ZM13.8659 7.59883C13.3873 7.59883 12.9993 7.21089 12.9993 6.73225C12.9993 6.25361 13.3873 5.86566 13.8659 5.86566H28.5205C29.757 5.86353 30.8995 6.52527 31.513 7.59894H13.8659V7.59883ZM17.0014 9.33201H22.5322V10.1986C22.5322 11.6344 23.6961 12.7985 25.132 12.7985H37.4164L39.7996 14.5317H14.4015L17.0014 9.33201ZM11.6994 16.265H29.4651V17.1316C29.4651 17.6102 29.0771 17.9982 28.5985 17.9982H10.3995L11.6994 16.265ZM38.5646 28.3977C36.4903 28.4485 34.4476 27.8826 32.695 26.7719C30.6888 25.5156 28.3581 24.8757 25.9917 24.9312C23.6267 24.8757 21.2973 25.5157 19.2927 26.7719C17.5432 27.8815 15.5038 28.4474 13.4327 28.3977C11.3601 28.4477 9.31919 27.8819 7.56824 26.7719C6.37068 26.0485 5.06486 25.5218 3.70054 25.212L7.21553 19.7315H28.5985C30.0343 19.7315 31.1984 18.5675 31.1984 17.1316V16.265H33.7982V18.8649C33.7982 19.3435 34.1863 19.7315 34.6648 19.7315C35.1433 19.7315 35.5314 19.3435 35.5314 18.8649V16.265H37.2647V18.8649C37.2647 19.3435 37.6526 19.7315 38.1313 19.7315C38.6099 19.7315 38.9978 19.3435 38.9978 18.8649V16.265H40.7311V18.8649C40.7311 19.3435 41.1191 19.7315 41.5977 19.7315C42.0763 19.7315 42.4643 19.3435 42.4643 18.8649V16.2702H50.2561L40.2699 28.2867C39.7047 28.3614 39.1349 28.3985 38.5646 28.3977Z" fill="#3F464C"/>
<path d="M51.1305 30.1309C48.7641 30.0754 46.4333 30.7154 44.4272 31.9716C42.6765 33.081 40.6365 33.6467 38.5645 33.5975C36.4914 33.6475 34.4499 33.0818 32.6983 31.9716C30.6912 30.7148 28.3591 30.0747 25.9916 30.1309C23.6266 30.0755 21.2972 30.7155 19.2926 31.9716C17.5431 33.0812 15.5037 33.6471 13.4326 33.5975C11.36 33.6474 9.31909 33.0816 7.56814 31.9716C5.56269 30.7153 3.23246 30.0752 0.866587 30.1309C0.387948 30.1309 0 30.5189 0 30.9975C0 31.4761 0.387948 31.8641 0.866587 31.8641C2.93886 31.8142 4.97945 32.38 6.73019 33.4899C8.73595 34.7465 11.0665 35.3865 13.4327 35.3306C15.7978 35.3863 18.1272 34.746 20.1317 33.4891C21.8814 32.38 23.9207 31.8145 25.9917 31.8642C28.0648 31.8141 30.1063 32.3799 31.8579 33.49C33.865 34.7469 36.1971 35.3869 38.5646 35.3307C40.931 35.3863 43.2617 34.7463 45.2679 33.49C47.0185 32.3806 49.0586 31.8149 51.1306 31.8642C51.6092 31.8642 51.9972 31.4762 51.9972 30.9976C51.9972 30.519 51.6091 30.1309 51.1305 30.1309Z" fill="#3F464C"/>
</svg>
