<svg width="56" height="35" viewBox="0 0 56 35" fill="none" xmlns="http://www.w3.org/2000/svg">
<g clip-path="url(#clip0)">
<path d="M51.8916 14.8375L50.4676 9.10579C50.6604 9.06435 50.8332 8.95765 50.9572 8.80349C51.0812 8.64934 51.1489 8.45706 51.149 8.25876V7.33444C51.1471 6.37093 50.7659 5.44739 50.0887 4.76601C49.4115 4.08463 48.4936 3.70091 47.5358 3.69884H41.0484V1.79009C41.0469 1.31578 40.859 0.861292 40.5256 0.525898C40.1922 0.190503 39.7404 0.00144139 39.269 0H6.19601C5.72453 0.00144139 5.27276 0.190503 4.93937 0.525898C4.60598 0.861292 4.41805 1.31578 4.41661 1.79009V17.4996C4.41661 17.7294 4.50737 17.9498 4.66891 18.1124C4.83044 18.2749 5.04954 18.3662 5.27799 18.3662C5.50644 18.3662 5.72553 18.2749 5.88707 18.1124C6.04861 17.9498 6.13937 17.7294 6.13937 17.4996V1.79009C6.13937 1.77477 6.14542 1.76007 6.15618 1.74924C6.16695 1.73841 6.18156 1.73232 6.19679 1.73232H39.2651C39.2803 1.73232 39.2949 1.73841 39.3057 1.74924C39.3165 1.76007 39.3225 1.77477 39.3225 1.79009V17.5004C39.3225 17.7302 39.4133 17.9506 39.5748 18.1131C39.7363 18.2756 39.9554 18.3669 40.1839 18.3669C40.4123 18.3669 40.6314 18.2756 40.793 18.1131C40.9545 17.9506 41.0453 17.7302 41.0453 17.5004V16.5183H51.211C51.8061 16.5193 52.3856 16.7099 52.8664 17.0626C53.3472 17.4153 53.7046 17.912 53.8875 18.4817H51.2064C50.9779 18.4817 50.7588 18.573 50.5973 18.7355C50.4358 18.898 50.345 19.1184 50.345 19.3483V21.1961C50.3458 21.9158 50.6304 22.6057 51.1362 23.1146C51.642 23.6234 52.3279 23.9097 53.0432 23.9105H54.0194V27.7226H51.769C51.399 26.6435 50.7036 25.7074 49.7797 25.0448C48.8558 24.3822 47.7494 24.026 46.6147 24.026C45.48 24.026 44.3737 24.3822 43.4497 25.0448C42.5258 25.7074 41.8304 26.6435 41.4604 27.7226H41.046V21.1961C41.046 20.9663 40.9553 20.7459 40.7937 20.5834C40.6322 20.4209 40.4131 20.3296 40.1847 20.3296C39.9562 20.3296 39.7371 20.4209 39.5756 20.5834C39.414 20.7459 39.3233 20.9663 39.3233 21.1961V27.7226H21.4548C21.0848 26.6435 20.3894 25.7074 19.4655 25.0448C18.5415 24.3822 17.4352 24.026 16.3005 24.026C15.1658 24.026 14.0594 24.3822 13.1355 25.0448C12.2116 25.7074 11.5162 26.6435 11.1462 27.7226H6.19601C6.18847 27.7226 6.18101 27.7211 6.17404 27.7182C6.16707 27.7153 6.16074 27.711 6.15541 27.7056C6.15008 27.7003 6.14585 27.6939 6.14296 27.6869C6.14007 27.6799 6.13859 27.6724 6.13859 27.6648V25.7592H9.87044C10.0989 25.7592 10.318 25.6679 10.4795 25.5053C10.6411 25.3428 10.7318 25.1224 10.7318 24.8926C10.7318 24.6628 10.6411 24.4424 10.4795 24.2799C10.318 24.1174 10.0989 24.0261 9.87044 24.0261H1.60356C1.37511 24.0261 1.15602 24.1174 0.994479 24.2799C0.832939 24.4424 0.742188 24.6628 0.742188 24.8926C0.742188 25.1224 0.832939 25.3428 0.994479 25.5053C1.15602 25.6679 1.37511 25.7592 1.60356 25.7592H4.41661V27.6656C4.41805 28.1399 4.60598 28.5944 4.93937 28.9298C5.27276 29.2651 5.72453 29.4542 6.19601 29.4557H10.8474C10.8474 29.4752 10.8474 29.4939 10.8474 29.5134C10.8474 30.2339 10.9885 30.9474 11.2626 31.613C11.5367 32.2787 11.9384 32.8835 12.4448 33.393C12.9513 33.9025 13.5525 34.3066 14.2142 34.5824C14.8759 34.8581 15.5851 35 16.3013 35C17.0175 35 17.7267 34.8581 18.3884 34.5824C19.05 34.3066 19.6513 33.9025 20.1577 33.393C20.6641 32.8835 21.0659 32.2787 21.34 31.613C21.614 30.9474 21.7551 30.2339 21.7551 29.5134C21.7551 29.4939 21.7551 29.4752 21.7551 29.4557H41.1632C41.1632 29.4752 41.1632 29.4939 41.1632 29.5134C41.1632 30.9686 41.7378 32.3641 42.7606 33.393C43.7834 34.422 45.1706 35 46.617 35C48.0635 35 49.4507 34.422 50.4735 33.393C51.4963 32.3641 52.0709 30.9686 52.0709 29.5134C52.0709 29.4939 52.0709 29.4752 52.0709 29.4557H54.8855C54.9986 29.4557 55.1106 29.4332 55.2151 29.3897C55.3196 29.3461 55.4146 29.2823 55.4945 29.2019C55.5745 29.1214 55.638 29.0258 55.6813 28.9207C55.7246 28.8156 55.7468 28.7029 55.7468 28.5891V19.3483C55.7454 18.2572 55.3559 17.2026 54.6488 16.3753C53.9417 15.548 52.9637 15.0025 51.8916 14.8375ZM41.0453 5.42882H47.5358C48.038 5.42944 48.5195 5.6304 48.8746 5.98764C49.2297 6.34488 49.4295 6.82923 49.4301 7.33444V7.39221H41.0491L41.0453 5.42882ZM41.0453 14.7852V9.12531H48.6999L50.1037 14.7844L41.0453 14.7852ZM16.3005 33.2677C15.5624 33.2677 14.8409 33.0475 14.2272 32.635C13.6135 32.2225 13.1352 31.6361 12.8527 30.9501C12.5703 30.2641 12.4964 29.5093 12.6403 28.781C12.7843 28.0527 13.1398 27.3838 13.6617 26.8588C14.1836 26.3337 14.8485 25.9762 15.5724 25.8313C16.2964 25.6864 17.0467 25.7608 17.7286 26.0449C18.4105 26.3291 18.9934 26.8103 19.4034 27.4277C19.8135 28.0451 20.0323 28.7709 20.0323 29.5134C20.0313 30.5088 19.6378 31.4631 18.9382 32.167C18.2385 32.8708 17.2899 33.2667 16.3005 33.2677ZM46.6139 33.2677C45.8758 33.2677 45.1543 33.0475 44.5406 32.635C43.9269 32.2225 43.4486 31.6361 43.1662 30.9501C42.8837 30.2641 42.8098 29.5093 42.9538 28.781C43.0978 28.0527 43.4532 27.3838 43.9751 26.8588C44.497 26.3337 45.162 25.9762 45.8859 25.8313C46.6098 25.6864 47.3601 25.7608 48.042 26.0449C48.724 26.3291 49.3068 26.8103 49.7169 27.4277C50.1269 28.0451 50.3458 28.7709 50.3458 29.5134C50.3448 30.5088 49.9512 31.4631 49.2516 32.167C48.552 32.8708 47.6034 33.2667 46.6139 33.2677ZM54.0202 22.1821H53.0455C52.7867 22.1819 52.5385 22.0784 52.3555 21.8942C52.1724 21.7101 52.0695 21.4604 52.0693 21.2V20.2179H54.021V22.1821H54.0202Z" fill="#3F464C"/>
<path d="M16.3009 27.7257C15.9489 27.7257 15.6049 27.8307 15.3123 28.0274C15.0197 28.2241 14.7916 28.5037 14.6569 28.8308C14.5223 29.1578 14.487 29.5178 14.5557 29.865C14.6243 30.2123 14.7938 30.5312 15.0427 30.7816C15.2915 31.0319 15.6086 31.2024 15.9537 31.2715C16.2989 31.3406 16.6567 31.3051 16.9818 31.1696C17.307 31.0341 17.5849 30.8047 17.7804 30.5103C17.9759 30.2159 18.0803 29.8698 18.0803 29.5158C18.0788 29.0415 17.8909 28.587 17.5575 28.2516C17.2241 27.9162 16.7724 27.7271 16.3009 27.7257Z" fill="#3F464C"/>
<path d="M46.6134 27.7257C46.2614 27.7257 45.9174 27.8307 45.6248 28.0274C45.3322 28.2241 45.1041 28.5037 44.9694 28.8308C44.8348 29.1578 44.7995 29.5178 44.8682 29.865C44.9368 30.2123 45.1063 30.5312 45.3552 30.7816C45.604 31.0319 45.9211 31.2024 46.2662 31.2715C46.6114 31.3406 46.9692 31.3051 47.2943 31.1696C47.6195 31.0341 47.8974 30.8047 48.0929 30.5103C48.2884 30.2159 48.3928 29.8698 48.3928 29.5158C48.3913 29.0415 48.2034 28.587 47.87 28.2516C47.5367 27.9162 47.0849 27.7271 46.6134 27.7257Z" fill="#3F464C"/>
<path d="M36.5096 24.0269H23.6495C23.421 24.0269 23.2019 24.1181 23.0404 24.2807C22.8788 24.4432 22.7881 24.6636 22.7881 24.8934C22.7881 25.1232 22.8788 25.3436 23.0404 25.5062C23.2019 25.6687 23.421 25.76 23.6495 25.76H36.5096C36.738 25.76 36.9571 25.6687 37.1186 25.5062C37.2802 25.3436 37.3709 25.1232 37.3709 24.8934C37.3709 24.6636 37.2802 24.4432 37.1186 24.2807C36.9571 24.1181 36.738 24.0269 36.5096 24.0269Z" fill="#3F464C"/>
<path d="M14.4628 20.3303H3.44341C3.21495 20.3303 2.99586 20.4216 2.83432 20.5841C2.67278 20.7467 2.58203 20.9671 2.58203 21.1969C2.58203 21.4267 2.67278 21.6471 2.83432 21.8096C2.99586 21.9721 3.21495 22.0634 3.44341 22.0634H14.4628C14.6913 22.0634 14.9104 21.9721 15.0719 21.8096C15.2334 21.6471 15.3242 21.4267 15.3242 21.1969C15.3242 20.9671 15.2334 20.7467 15.0719 20.5841C14.9104 20.4216 14.6913 20.3303 14.4628 20.3303Z" fill="#3F464C"/>
<path d="M30.6883 8.57029C30.5268 8.40796 30.3078 8.31677 30.0795 8.31677C29.8512 8.31677 29.6322 8.40796 29.4707 8.57029L21.8122 16.2748L17.8282 12.2668C17.7492 12.1821 17.6541 12.1143 17.5486 12.0674C17.443 12.0205 17.3292 11.9953 17.2138 11.9935C17.0984 11.9917 16.9838 12.0132 16.8769 12.0568C16.7699 12.1004 16.6728 12.1651 16.5912 12.2472C16.5096 12.3293 16.4452 12.427 16.4019 12.5346C16.3586 12.6422 16.3372 12.7575 16.339 12.8736C16.3408 12.9897 16.3658 13.1042 16.4124 13.2104C16.4591 13.3165 16.5265 13.4122 16.6106 13.4917L21.2039 18.1125C21.3654 18.2748 21.5843 18.366 21.8126 18.366C22.0409 18.366 22.2599 18.2748 22.4214 18.1125L30.6883 9.79594C30.7683 9.71547 30.8318 9.61993 30.8751 9.51478C30.9184 9.40963 30.9407 9.29693 30.9407 9.18311C30.9407 9.06929 30.9184 8.95659 30.8751 8.85144C30.8318 8.74629 30.7683 8.65076 30.6883 8.57029Z" fill="#3F464C"/>
</g>
<defs>
<clipPath id="clip0">
<rect width="55" height="35" fill="white" transform="translate(0.742188)"/>
</clipPath>
</defs>
</svg>
