<svg width="59" height="47" viewBox="0 0 59 47" fill="none" xmlns="http://www.w3.org/2000/svg">
<path d="M36.5461 31.0553H33.1497C32.9101 31.0553 32.6802 31.1527 32.5108 31.3262C32.3413 31.4996 32.2461 31.7348 32.2461 31.9801C32.2461 32.2254 32.3413 32.4606 32.5108 32.6341C32.6802 32.8075 32.9101 32.9049 33.1497 32.9049H36.5461C36.7858 32.9049 37.0156 32.8075 37.1851 32.6341C37.3546 32.4606 37.4498 32.2254 37.4498 31.9801C37.4498 31.7348 37.3546 31.4996 37.1851 31.3262C37.0156 31.1527 36.7858 31.0553 36.5461 31.0553Z" fill="#3F464C"/>
<path d="M11.6291 37.9094C11.0558 37.9094 10.4954 38.0834 10.0187 38.4094C9.54202 38.7354 9.1705 39.1986 8.95111 39.7407C8.73172 40.2828 8.67432 40.8793 8.78617 41.4547C8.89801 42.0302 9.17407 42.5588 9.57945 42.9737C9.98483 43.3885 10.5013 43.6711 11.0636 43.7856C11.6258 43.9 12.2087 43.8413 12.7383 43.6167C13.268 43.3922 13.7207 43.012 14.0392 42.5241C14.3577 42.0363 14.5277 41.4627 14.5277 40.876C14.5268 40.0895 14.2211 39.3354 13.6777 38.7793C13.1343 38.2231 12.3976 37.9103 11.6291 37.9094ZM11.6291 41.9938C11.4131 41.9938 11.2019 41.9282 11.0223 41.8054C10.8427 41.6826 10.7027 41.508 10.62 41.3037C10.5374 41.0995 10.5157 40.8747 10.5579 40.6579C10.6 40.4411 10.704 40.2419 10.8568 40.0856C11.0095 39.9293 11.2041 39.8228 11.416 39.7797C11.6279 39.7365 11.8475 39.7587 12.047 39.8433C12.2466 39.9279 12.4172 40.0712 12.5372 40.255C12.6572 40.4388 12.7212 40.6549 12.7212 40.876C12.7208 41.1723 12.6056 41.4563 12.4009 41.6659C12.1961 41.8754 11.9186 41.9933 11.6291 41.9938Z" fill="#3F464C"/>
<path d="M50.2726 37.9094C49.6993 37.9094 49.1389 38.0834 48.6622 38.4094C48.1856 38.7354 47.8141 39.1986 47.5947 39.7407C47.3753 40.2828 47.3179 40.8793 47.4297 41.4547C47.5416 42.0302 47.8176 42.5588 48.223 42.9737C48.6284 43.3885 49.1448 43.6711 49.7071 43.7856C50.2694 43.9 50.8522 43.8413 51.3819 43.6167C51.9115 43.3922 52.3642 43.012 52.6827 42.5241C53.0012 42.0363 53.1712 41.4627 53.1712 40.876C53.1703 40.0895 52.8647 39.3354 52.3213 38.7793C51.7779 38.2231 51.0411 37.9103 50.2726 37.9094ZM50.2726 41.9938C50.0566 41.9938 49.8454 41.9282 49.6658 41.8054C49.4862 41.6826 49.3463 41.508 49.2636 41.3037C49.1809 41.0995 49.1593 40.8747 49.2014 40.6579C49.2436 40.4411 49.3476 40.2419 49.5003 40.0856C49.6531 39.9293 49.8477 39.8228 50.0596 39.7797C50.2714 39.7365 50.491 39.7587 50.6906 39.8433C50.8901 39.9279 51.0607 40.0712 51.1807 40.255C51.3007 40.4388 51.3648 40.6549 51.3648 40.876C51.3646 41.1724 51.2494 41.4566 51.0447 41.6661C50.8399 41.8757 50.5622 41.9935 50.2726 41.9938Z" fill="#3F464C"/>
<path d="M58.9312 35.2096C58.7106 33.386 57.9463 31.6763 56.7423 30.3133C55.5383 28.9502 53.9531 28 52.2025 27.5921L48.6122 24.0819C46.3798 21.8906 43.405 20.6692 40.3118 20.674H33.3483C29.4703 20.6793 25.6458 21.5997 22.1718 23.3637C22.0656 23.4178 21.9709 23.4928 21.893 23.5843C21.8151 23.6759 21.7556 23.7823 21.7179 23.8974C21.6801 24.0125 21.6649 24.1341 21.6731 24.2552C21.6813 24.3763 21.7127 24.4946 21.7656 24.6033C21.8184 24.712 21.8917 24.809 21.9812 24.8887C22.0707 24.9684 22.1746 25.0293 22.2871 25.0679C22.3995 25.1065 22.5183 25.1221 22.6367 25.1137C22.755 25.1053 22.8706 25.0732 22.9768 25.0191C26.2005 23.3822 29.7497 22.5283 33.3483 22.5237H37.9543L38.6827 28.0351L16.3671 28.9211L19.7552 26.8875C19.9619 26.7632 20.1118 26.56 20.1721 26.3226C20.2323 26.0851 20.198 25.8329 20.0765 25.6214C19.9551 25.4099 19.7566 25.2565 19.5246 25.1948C19.2926 25.1331 19.0462 25.1683 18.8395 25.2926L12.5387 29.0745L9.3579 29.2193C8.36774 29.2647 7.39246 29.4831 6.47429 29.8651C6.45015 29.8728 6.426 29.8813 6.4027 29.8907C4.56244 30.6694 3.03849 32.0701 2.08477 33.8592C1.88414 34.2362 1.70946 34.627 1.56199 35.0289C1.26647 35.8306 1.05003 36.6707 0.801962 37.4886L0.187613 39.5282L0.121017 39.748C-0.00226239 40.1557 -0.0302922 40.5874 0.0391834 41.0082C0.108659 41.429 0.273699 41.8273 0.52102 42.1709C0.768341 42.5145 1.09103 42.7939 1.46313 42.9866C1.83522 43.1793 2.24631 43.2799 2.66332 43.2803H6.12632C6.58652 44.3836 7.3533 45.3243 8.3314 45.9854C9.30951 46.6465 10.4558 46.9989 11.628 46.9989C12.8002 46.9989 13.9465 46.6465 14.9246 45.9854C15.9027 45.3243 16.6695 44.3836 17.1297 43.2803H44.7671C45.2273 44.3836 45.994 45.3243 46.9721 45.9854C47.9502 46.6465 49.0966 46.9989 50.2687 46.9989C51.4409 46.9989 52.5872 46.6465 53.5653 45.9854C54.5434 45.3243 55.3102 44.3836 55.7704 43.2803H58.0963C58.3358 43.2803 58.5656 43.1829 58.7349 43.0096C58.9043 42.8362 58.9995 42.6011 58.9995 42.3559V36.3129C58.9996 35.944 58.9768 35.5755 58.9312 35.2096ZM54.6699 30.8423L54.7082 30.8747C55.8609 31.8643 56.6696 33.2094 57.0133 34.7086C56.357 34.5892 55.7627 34.2375 55.3344 33.715C54.906 33.1924 54.6708 32.5323 54.6699 31.8502V30.8423ZM40.3118 22.5288C42.9401 22.5249 45.4678 23.5631 47.3643 25.4255L49.5986 27.6099L40.4966 27.9712L39.7782 22.5322L40.3118 22.5288ZM3.40254 35.3084C3.44167 35.2164 3.48579 35.1261 3.52491 35.0366V35.0298C4.06713 33.9061 4.88991 32.9491 5.90988 32.2558V32.5114C5.90894 33.2292 5.64843 33.9213 5.17856 34.4543C4.70868 34.9872 4.0627 35.3233 3.36508 35.3978L3.40254 35.3084ZM15.0244 43.3604C14.5956 43.972 14.0179 44.4581 13.3487 44.7704C12.7947 45.0261 12.1928 45.155 11.5852 45.148C10.9775 45.1411 10.3786 44.9985 9.83033 44.7302C9.28205 44.462 8.79758 44.0745 8.41074 43.5948C8.0239 43.1151 7.74401 42.5548 7.5906 41.9529C7.41284 41.2569 7.40962 40.5263 7.58125 39.8287C7.75288 39.1311 8.09379 38.4891 8.57241 37.9623C9.05102 37.4354 9.65183 37.0407 10.3192 36.8148C10.9865 36.5889 11.6988 36.5391 12.3899 36.6699C13.0811 36.8008 13.7288 37.1081 14.273 37.5633C14.8173 38.0186 15.2404 38.6071 15.5032 39.2743C15.766 39.9415 15.86 40.6658 15.7764 41.3801C15.6929 42.0944 15.4345 42.7755 15.0252 43.3604H15.0244ZM17.5875 41.4315C17.6042 41.2475 17.6125 41.0618 17.6125 40.8769C17.6125 39.2529 16.9822 37.6955 15.8602 36.5472C14.7382 35.3989 13.2164 34.7537 11.6297 34.7537C10.0429 34.7537 8.52116 35.3989 7.39916 36.5472C6.27716 37.6955 5.64683 39.2529 5.64683 40.8769C5.64683 40.8769 5.64683 40.8769 5.64683 40.8829C5.64683 41.0601 5.65516 41.2509 5.67097 41.4324H2.66332C2.52908 41.4324 2.39671 41.4001 2.27687 41.3381C2.15704 41.2762 2.0531 41.1863 1.97341 41.0758C1.89371 40.9652 1.8405 40.837 1.81806 40.7015C1.79562 40.5661 1.80457 40.4271 1.84419 40.2958L2.75989 37.2526C2.86228 37.2594 2.96467 37.2637 3.06706 37.2637C4.29795 37.2623 5.47804 36.7613 6.3484 35.8705C7.21877 34.9797 7.70832 33.772 7.70965 32.5122V31.4498C7.70965 31.4259 7.70965 31.4029 7.70965 31.3791C8.26919 31.2019 8.84854 31.0986 9.43365 31.0715L12.8334 30.9165L18.1053 30.7069C17.7657 32.8956 17.2962 37.6931 18.8845 41.4315H17.5867H17.5875ZM32.2561 41.4315H20.904C18.9744 37.9333 19.6395 32.5361 19.9575 30.6336L38.8816 29.8822C38.9882 31.7965 38.9898 36.5276 36.7131 39.2982C36.1646 39.9621 35.4822 40.4964 34.7126 40.8646C33.9431 41.2327 33.1048 41.4258 32.2553 41.4307L32.2561 41.4315ZM54.441 41.1546C54.3725 42.2632 53.885 43.3009 53.0818 44.0479C52.2785 44.7948 51.2227 45.1924 50.138 45.1563C49.0532 45.1202 48.0249 44.6532 47.2708 43.8544C46.5167 43.0556 46.0961 41.9876 46.0981 40.8769C46.0981 39.7434 46.5381 38.6563 47.3213 37.8548C48.1044 37.0532 49.1666 36.603 50.2741 36.603C51.3817 36.603 52.4439 37.0532 53.227 37.8548C54.0102 38.6563 54.4501 39.7434 54.4501 40.8769C54.4501 40.97 54.4474 41.0626 54.4418 41.1546H54.441ZM57.1939 41.4315H56.2324C56.2968 40.6123 56.201 39.7881 55.9506 39.0072C55.7003 38.2263 55.3004 37.5042 54.7743 36.8832C54.2482 36.2622 53.6065 35.7548 52.8867 35.3905C52.1668 35.0262 51.3833 34.8123 50.5817 34.7614C50.4796 34.7563 50.3772 34.7537 50.2746 34.7537C48.6887 34.7567 47.1686 35.4027 46.0472 36.5504C44.9258 37.6981 44.2946 39.2538 44.2917 40.8769C44.2917 41.0601 44.3001 41.2483 44.3159 41.4315H37.1793C37.5118 41.1426 37.8198 40.8254 38.1 40.4833C40.7871 37.2032 40.8154 31.9976 40.6905 29.8106L51.6856 29.3744C52.125 29.4681 52.5543 29.6057 52.9675 29.785C52.8978 30.1154 52.8626 30.4524 52.8627 30.7904V31.8519C52.8641 33.0559 53.3116 34.2146 54.115 35.0942C54.9183 35.9738 56.0177 36.5089 57.1914 36.5915V41.4324L57.1939 41.4315Z" fill="#3F464C"/>
<path d="M34.3284 4.53418C34.2445 4.44827 34.1449 4.38012 34.0353 4.33362C33.9257 4.28712 33.8082 4.26318 33.6895 4.26318C33.5708 4.26318 33.4533 4.28712 33.3437 4.33362C33.2341 4.38012 33.1345 4.44827 33.0506 4.53418L26.5575 11.1796L25.7708 9.09565C25.728 8.98237 25.6639 8.87881 25.5821 8.79089C25.5002 8.70298 25.4023 8.63242 25.2938 8.58325C25.1853 8.53408 25.0684 8.50726 24.9498 8.50433C24.8311 8.50139 24.7131 8.5224 24.6024 8.56614C24.4918 8.60989 24.3906 8.67552 24.3047 8.75929C24.2188 8.84306 24.1498 8.94332 24.1018 9.05435C24.0538 9.16539 24.0275 9.28502 24.0247 9.40642C24.0218 9.52782 24.0423 9.64861 24.0851 9.76189L25.3721 13.1698C25.4262 13.3134 25.5146 13.441 25.6291 13.5408C25.7437 13.6406 25.8808 13.7096 26.028 13.7414C26.1752 13.7732 26.3278 13.7669 26.4721 13.723C26.6163 13.6791 26.7475 13.5991 26.8538 13.4901L34.3301 5.83855C34.4983 5.66509 34.5927 5.43047 34.5924 5.18601C34.592 4.94156 34.4971 4.70719 34.3284 4.53418Z" fill="#3F464C"/>
<path d="M29.3083 0C27.5664 0 25.8636 0.528654 24.4152 1.51911C22.9669 2.50957 21.838 3.91735 21.1714 5.56442C20.5048 7.21149 20.3304 9.02388 20.6702 10.7724C21.01 12.5209 21.8489 14.1271 23.0806 15.3877C24.3123 16.6483 25.8816 17.5068 27.5901 17.8546C29.2985 18.2024 31.0694 18.0239 32.6787 17.3416C34.2881 16.6594 35.6636 15.5041 36.6314 14.0217C37.5991 12.5394 38.1157 10.7967 38.1157 9.01388C38.113 6.62408 37.1842 4.33294 35.5331 2.64309C33.882 0.953249 31.6434 0.00270595 29.3083 0ZM29.3083 16.1781C27.9238 16.1781 26.5704 15.758 25.4193 14.9707C24.2681 14.1835 23.3709 13.0646 22.8411 11.7555C22.3113 10.4464 22.1726 9.00594 22.4427 7.61621C22.7128 6.22648 23.3795 4.94993 24.3585 3.94799C25.3375 2.94606 26.5848 2.26373 27.9427 1.98729C29.3005 1.71086 30.708 1.85274 31.9871 2.39498C33.2662 2.93723 34.3595 3.85549 35.1287 5.03364C35.8979 6.2118 36.3084 7.59693 36.3084 9.01388C36.3062 10.9133 35.568 12.7342 34.2557 14.0773C32.9434 15.4204 31.1642 16.1759 29.3083 16.1781Z" fill="#3F464C"/>
</svg>
