<svg width="52" height="49" viewBox="0 0 52 49" fill="none" xmlns="http://www.w3.org/2000/svg">
<g clip-path="url(#clip0)">
<path d="M1.19335 39.7844H1.25162C1.32669 40.3948 1.48499 40.9919 1.72208 41.559L1.67581 41.5848C1.51513 41.6778 1.38956 41.8214 1.31857 41.9933C1.24759 42.1652 1.23515 42.3557 1.28318 42.5354C1.33122 42.715 1.43704 42.8738 1.58426 42.9871C1.73147 43.1003 1.91185 43.1617 2.09742 43.1618C2.24562 43.1622 2.3912 43.1227 2.51904 43.0476L2.57388 43.0158C2.94458 43.5046 3.37957 43.9409 3.86701 44.3128L3.83616 44.3678C3.77244 44.4639 3.72904 44.572 3.70862 44.6856C3.68819 44.7991 3.69119 44.9157 3.71741 45.028C3.74363 45.1404 3.79253 45.2462 3.86109 45.3389C3.92965 45.4316 4.01642 45.5092 4.11605 45.567C4.21568 45.6248 4.32607 45.6616 4.44041 45.675C4.55475 45.6884 4.67062 45.6782 4.78088 45.645C4.89114 45.6119 4.99346 45.5564 5.08153 45.4821C5.16959 45.4078 5.24155 45.3162 5.29296 45.213L5.32038 45.1666C5.88612 45.4043 6.48188 45.5627 7.09082 45.6373V45.6965C7.09082 45.9207 7.17966 46.1357 7.3378 46.2942C7.49593 46.4527 7.71041 46.5417 7.93405 46.5417C8.15769 46.5417 8.37217 46.4527 8.5303 46.2942C8.68844 46.1357 8.77728 45.9207 8.77728 45.6965V45.6373C9.38622 45.5627 9.98198 45.4043 10.5477 45.1666L10.5751 45.213C10.6265 45.3162 10.6985 45.4078 10.7866 45.4821C10.8746 45.5564 10.977 45.6119 11.0872 45.645C11.1975 45.6782 11.3133 45.6884 11.4277 45.675C11.542 45.6616 11.6524 45.6248 11.752 45.567C11.8517 45.5092 11.9385 45.4316 12.007 45.3389C12.0756 45.2462 12.1245 45.1404 12.1507 45.028C12.1769 44.9157 12.1799 44.7991 12.1595 44.6856C12.1391 44.572 12.0957 44.4639 12.0319 44.3678L12.0002 44.3128C12.4878 43.941 12.9228 43.5047 13.2934 43.0158L13.3482 43.0476C13.476 43.1227 13.6216 43.1622 13.7698 43.1618C13.9554 43.1617 14.1358 43.1003 14.283 42.9871C14.4302 42.8738 14.536 42.715 14.5841 42.5354C14.6321 42.3557 14.6197 42.1652 14.5487 41.9933C14.4777 41.8214 14.3521 41.6778 14.1914 41.5848L14.1452 41.559C14.3824 40.9919 14.5407 40.3948 14.6156 39.7844H14.6773C14.901 39.7844 15.1154 39.6954 15.2736 39.5369C15.4317 39.3784 15.5205 39.1634 15.5205 38.9392C15.5205 38.7151 15.4317 38.5001 15.2736 38.3416C15.1154 38.1831 14.901 38.0941 14.6773 38.0941H14.619C14.6139 38.0597 14.6079 38.0253 14.6028 37.991L17.0605 37.3201L19.058 38.6549C19.3349 38.8407 19.6606 38.9397 19.9938 38.9392H33.2567C33.4692 38.9399 33.6741 38.8601 33.8305 38.7158C33.9868 38.5715 34.083 38.3734 34.0999 38.1611C34.3046 35.7303 35.4102 33.4645 37.1987 31.8101C38.9872 30.1558 41.329 29.2327 43.7628 29.2229C44.7815 29.2219 45.7939 29.3834 46.7621 29.7013C47.2257 29.8465 47.7213 29.8546 48.1895 29.7249C48.6577 29.5952 49.0787 29.3331 49.4022 28.9699C49.7257 28.6066 49.938 28.1577 50.0137 27.6768C50.0894 27.1959 50.0253 26.7032 49.829 26.2578C49.6807 25.9262 49.4642 25.6297 49.1937 25.3877C48.9231 25.1457 48.6047 24.9636 48.2591 24.8535C46.0037 24.1398 43.611 23.9749 41.2793 24.3725C41.2374 24.2866 41.1936 24.1955 41.1414 24.0993C42.0317 23.2997 42.4902 21.6084 42.4902 19.9292C42.4902 17.6195 41.6221 15.2823 39.9614 15.2823C38.7347 15.3054 37.5335 15.6374 36.4685 16.2478L36.1017 15.7547C35.6025 15.0852 34.8728 14.6255 34.0545 14.4649C33.2361 14.3042 32.3873 14.4541 31.673 14.8855L31.4262 15.0332C30.9524 14.6493 30.3619 14.439 29.7526 14.4371H27.1818L20.5988 8.69165C20.3265 8.45411 20.0066 8.27778 19.6606 8.17449C19.3146 8.07121 18.9506 8.04336 18.593 8.09283C18.2353 8.14231 17.8925 8.26796 17.5873 8.46132C17.2822 8.65469 17.0219 8.91129 16.824 9.21388L10.8099 18.4131L10.2666 19.2583C9.8666 19.866 9.67819 20.5891 9.73073 21.3152C9.78327 22.0413 10.0738 22.7296 10.5571 23.273L8.14828 22.9011C8.03619 22.888 7.92349 22.8809 7.81065 22.8796H3.40169C2.84668 22.8805 2.31222 23.0902 1.90414 23.4672C1.49606 23.8442 1.24412 24.3611 1.19821 24.9155C1.15229 25.4699 1.31576 26.0214 1.65623 26.4607C1.99671 26.9 2.48936 27.1952 3.03663 27.2877L6.25102 27.828V28.1913C6.25243 28.5454 6.36385 28.8903 6.56979 29.178C6.77573 29.4657 7.06597 29.6819 7.40017 29.7967L11.4989 31.1667C11.8428 31.281 12.2027 31.339 12.565 31.3385H14.0389L16.0399 35.8522L14.1674 36.359C14.1614 36.3453 14.1572 36.3306 14.1512 36.3169L14.1974 36.2894C14.3004 36.2379 14.3918 36.1658 14.466 36.0775C14.5401 35.9892 14.5954 35.8867 14.6285 35.7761C14.6616 35.6656 14.6718 35.5495 14.6584 35.4349C14.645 35.3203 14.6083 35.2096 14.5507 35.1098C14.493 35.0099 14.4155 34.9229 14.3231 34.8542C14.2306 34.7855 14.125 34.7365 14.013 34.7102C13.9009 34.6839 13.7846 34.6809 13.6713 34.7014C13.558 34.7219 13.4501 34.7654 13.3542 34.8292L13.2994 34.8601C12.9285 34.3717 12.4936 33.9357 12.0062 33.564L12.0371 33.509C12.1318 33.3166 12.15 33.0953 12.088 32.89C12.0259 32.6847 11.8883 32.5107 11.703 32.4033C11.5177 32.2959 11.2986 32.2631 11.0901 32.3117C10.8816 32.3602 10.6994 32.4864 10.5803 32.6647L10.5529 32.7102C9.98691 32.4731 9.39123 32.3147 8.78242 32.2395V32.1811C8.78242 31.9569 8.69358 31.742 8.53544 31.5835C8.37731 31.4249 8.16283 31.3359 7.93919 31.3359C7.71555 31.3359 7.50107 31.4249 7.34294 31.5835C7.1848 31.742 7.09596 31.9569 7.09596 32.1811V32.2395C6.48713 32.3146 5.89144 32.473 5.32552 32.7102L5.2981 32.6647C5.24702 32.561 5.17525 32.4688 5.08722 32.394C4.99919 32.3192 4.89678 32.2634 4.78633 32.2298C4.67588 32.1963 4.55974 32.1859 4.4451 32.1992C4.33046 32.2124 4.21976 32.2492 4.11985 32.3071C4.01995 32.365 3.93297 32.4428 3.86429 32.5358C3.79561 32.6287 3.7467 32.7348 3.72059 32.8475C3.69448 32.9602 3.69172 33.077 3.71248 33.1908C3.73324 33.3046 3.77709 33.4129 3.8413 33.509L3.87301 33.564C3.38526 33.9341 2.9497 34.3687 2.57817 34.8558L2.52332 34.8249C2.42744 34.7611 2.31953 34.7176 2.20623 34.6971C2.09294 34.6766 1.97666 34.6796 1.86457 34.7059C1.75248 34.7322 1.64694 34.7812 1.55446 34.8499C1.46198 34.9186 1.38452 35.0056 1.32685 35.1055C1.26918 35.2053 1.23252 35.316 1.21913 35.4306C1.20575 35.5452 1.21591 35.6613 1.24901 35.7719C1.2821 35.8824 1.33742 35.9849 1.41156 36.0732C1.4857 36.1615 1.57709 36.2336 1.68009 36.2851L1.72637 36.3126C1.48904 36.8797 1.33073 37.4768 1.25591 38.0872H1.19335C1.08041 38.0836 0.967899 38.1028 0.8625 38.1436C0.7571 38.1844 0.660963 38.2461 0.579798 38.3249C0.498634 38.4037 0.434099 38.498 0.390026 38.6023C0.345953 38.7066 0.323242 38.8187 0.323242 38.9319C0.323242 39.0452 0.345953 39.1573 0.390026 39.2616C0.434099 39.3659 0.498634 39.4602 0.579798 39.539C0.660963 39.6178 0.7571 39.6795 0.8625 39.7203C0.967899 39.7611 1.08041 39.7803 1.19335 39.7767V39.7844ZM47.7492 26.4623C47.869 26.4999 47.9794 26.5624 48.0733 26.6457C48.1672 26.729 48.2425 26.8313 48.2943 26.9459C48.3595 27.0925 48.3815 27.2548 48.3576 27.4136C48.3337 27.5724 48.265 27.721 48.1596 27.8418C48.0541 27.9627 47.9164 28.0508 47.7626 28.0957C47.6087 28.1406 47.4453 28.1404 47.2916 28.0951C45.719 27.5809 44.0534 27.4165 42.4109 27.6134C40.7684 27.8103 39.1885 28.3638 37.7812 29.2352C36.3738 30.1067 35.173 31.2751 34.2622 32.6593C33.3515 34.0434 32.7527 35.6099 32.5077 37.2497H30.8058C31.0557 35.3478 31.7187 33.5239 32.7482 31.9067C33.7776 30.2894 35.1485 28.9182 36.764 27.8896C38.3795 26.8611 40.2005 26.2002 42.0985 25.9536C43.9966 25.7069 45.9254 25.8806 47.7492 26.4623ZM28.6446 27.1907L23.1105 29.2702V24.3347C23.796 24.071 24.491 23.809 25.1834 23.5616C27.1418 22.8544 28.8231 22.3064 30.2274 21.9176L32.3834 24.0796V24.9385L28.6446 27.1907ZM37.7916 17.4846C37.554 18.2774 37.4359 19.1014 37.4411 19.9292C37.4411 20.0572 37.4608 20.1765 37.466 20.3028C36.6631 19.8944 35.7912 19.6398 34.8951 19.5521C35.7371 18.7035 36.7164 18.0042 37.7916 17.4838V17.4846ZM39.9554 16.9693C40.197 17.0552 40.8123 18.0859 40.8123 19.9266C40.8573 20.8688 40.6449 21.8055 40.1979 22.6357C39.9401 22.2974 39.6583 21.9782 39.3547 21.6806C39.2006 21.1082 39.1239 20.5177 39.1267 19.9249C39.1267 18.0842 39.7411 17.0586 39.9459 16.9675L39.9554 16.9693ZM34.7589 16.7631L35.0614 17.1685C34.1157 17.9016 33.2536 18.737 32.4906 19.6595C31.8324 19.7694 31.068 19.9395 30.1922 20.1748C30.1768 20.1808 30.1614 20.1817 30.1468 20.1877C28.6175 20.5983 26.7742 21.1921 24.617 21.9692C24.0265 22.1787 23.437 22.4046 22.8465 22.6271C22.6563 22.1553 22.3624 21.7327 21.9865 21.3906C21.6107 21.0486 21.1627 20.7959 20.6759 20.6515L18.7838 20.0967L21.418 16.0657L24.0745 18.4312C24.8454 19.1193 25.8419 19.4993 26.8742 19.4988H29.8572C30.1946 19.4979 30.5285 19.4296 30.8392 19.2978C31.136 19.1774 31.4048 18.9967 31.6285 18.767C31.8943 18.5075 32.0989 18.1917 32.2274 17.8428C32.356 17.4939 32.4052 17.1206 32.3714 16.7502C32.3601 16.6559 32.3426 16.5623 32.3192 16.4702L32.5445 16.3354C32.9009 16.1188 33.3248 16.0429 33.7339 16.1222C34.143 16.2016 34.508 16.4307 34.758 16.7648L34.7589 16.7631ZM11.684 20.1774L18.2371 10.139C18.3027 10.0376 18.3895 9.95178 18.4914 9.88728C18.5933 9.82278 18.708 9.78118 18.8275 9.76532C18.867 9.76017 18.9068 9.75759 18.9466 9.7576C19.1486 9.75773 19.3435 9.83163 19.495 9.96546L26.0764 15.7109C26.383 15.9794 26.7764 16.1274 27.1835 16.1275H29.7543C29.9777 16.1174 30.197 16.1896 30.3707 16.3307C30.5444 16.4717 30.6605 16.6717 30.697 16.8928C30.7084 17.02 30.6905 17.148 30.6448 17.2672C30.599 17.3863 30.5266 17.4933 30.433 17.58C30.3652 17.6514 30.2828 17.7074 30.1914 17.744C30.0846 17.7897 29.9698 17.8137 29.8537 17.8145H26.8707C26.2515 17.8141 25.6539 17.5861 25.1911 17.1737L21.0324 13.4734C20.9505 13.3953 20.8537 13.3345 20.7479 13.2946C20.642 13.2547 20.5293 13.2366 20.4163 13.2413C20.3033 13.246 20.1924 13.2734 20.0902 13.3219C19.9881 13.3704 19.8966 13.4391 19.8215 13.5237C19.7463 13.6084 19.6888 13.7073 19.6526 13.8146C19.6163 13.922 19.6019 14.0355 19.6103 14.1486C19.6187 14.2616 19.6497 14.3718 19.7015 14.4725C19.7532 14.5733 19.8246 14.6626 19.9115 14.7352L20.142 14.9404L16.7485 20.131C16.6765 20.2414 16.6311 20.3671 16.6162 20.4981C16.6012 20.6291 16.6171 20.7619 16.6625 20.8857C16.7079 21.0094 16.7815 21.1209 16.8776 21.211C16.9736 21.3012 17.0894 21.3675 17.2156 21.4048L20.2097 22.2775C20.5602 22.3814 20.8679 22.5959 21.0868 22.8892C21.3058 23.1825 21.4244 23.5389 21.4249 23.9052V30.7922C21.4364 31.1211 21.3279 31.4429 21.1197 31.6973C20.9114 31.9518 20.6178 32.1213 20.2937 32.1742C20.117 32.194 19.9382 32.1757 19.7691 32.1206C19.6 32.0655 19.4447 31.9749 19.3134 31.8547C19.1815 31.7361 19.0759 31.5911 19.0033 31.4291C18.9307 31.2672 18.8927 31.0917 18.8918 30.9142V25.8018C18.8902 25.432 18.7676 25.0729 18.543 24.7796C18.4788 24.6863 18.3966 24.6069 18.3013 24.546C18.1229 24.3787 17.9095 24.2534 17.6766 24.1792L12.6267 22.7182C12.3749 22.6447 12.1437 22.5135 11.9514 22.3348C11.7592 22.1561 11.6112 21.9349 11.5191 21.6888C11.4271 21.4427 11.3936 21.1785 11.4214 20.9172C11.4491 20.6558 11.5373 20.4046 11.6789 20.1834L11.684 20.1774ZM12.0268 29.5613L7.93319 28.1913V27.828C7.9348 27.4261 7.79341 27.0368 7.53442 26.7299C7.27543 26.4231 6.9158 26.2189 6.5201 26.1539L3.30914 25.6214C3.18172 25.5962 3.06803 25.5248 2.98973 25.4209C2.91143 25.3171 2.87401 25.188 2.8846 25.0582C2.8952 24.9285 2.95306 24.8072 3.04716 24.7175C3.14127 24.6277 3.26502 24.5759 3.39483 24.5717H7.80979C7.86549 24.5717 7.92119 24.5786 7.93491 24.5786L17.2079 26.0148V29.6481H12.565C12.383 29.6472 12.2024 29.6167 12.0302 29.5579L12.0268 29.5613ZM17.2541 31.3359C17.3492 32.0413 17.6974 32.6878 18.2337 33.1544C18.77 33.6209 19.4576 33.8756 20.1677 33.8706C20.2663 33.8706 20.3648 33.8655 20.4651 33.856C21.1517 33.7647 21.7863 33.44 22.2628 32.9362C22.7393 32.4323 23.0288 31.7798 23.0831 31.0877L27.9393 29.2624L27.6865 30.8085C27.3183 30.6017 26.9038 30.4918 26.4817 30.489C25.9874 30.487 25.5034 30.6302 25.0895 30.901C24.6755 31.1717 24.3498 31.5581 24.1526 32.0124C23.9554 32.4667 23.8954 32.969 23.9799 33.4571C24.0644 33.9452 24.2898 34.3978 24.6281 34.759C24.9665 35.1201 25.4031 35.3739 25.8838 35.489C26.3645 35.6042 26.8684 35.5756 27.3331 35.4068C27.7978 35.238 28.203 34.9364 28.4985 34.5392C28.794 34.1421 28.967 33.6669 28.996 33.1723V33.162L29.7749 28.4782L33.2472 26.3893C33.4969 26.2389 33.7037 26.0265 33.8476 25.7727C33.9915 25.5189 34.0678 25.2322 34.069 24.9402V24.0813C34.0697 23.8593 34.0265 23.6394 33.9417 23.4343C33.857 23.2292 33.7325 23.043 33.5754 22.8865L32.1426 21.4486C32.4708 21.3825 32.7828 21.3232 33.0596 21.2768C33.3943 21.2253 33.7321 21.1966 34.0708 21.191C35.5359 21.176 36.951 21.724 38.0255 22.7225C38.4957 23.1545 38.9087 23.6453 39.2544 24.1826C39.3881 24.3905 39.4969 24.5829 39.5912 24.7616C36.8185 25.5866 34.3483 27.2093 32.487 29.4282C30.6257 31.6472 29.455 34.365 29.1202 37.2446H19.9912L17.884 35.8325L15.8882 31.3299L17.2541 31.3359ZM27.3275 33.0254C27.3275 33.1926 27.278 33.356 27.1854 33.495C27.0927 33.634 26.961 33.7423 26.8069 33.8063C26.6529 33.8703 26.4833 33.887 26.3197 33.8544C26.1562 33.8218 26.0059 33.7413 25.888 33.6231C25.7701 33.5049 25.6898 33.3543 25.6572 33.1903C25.6247 33.0264 25.6414 32.8564 25.7052 32.702C25.769 32.5476 25.8771 32.4156 26.0158 32.3227C26.1544 32.2298 26.3175 32.1802 26.4843 32.1802C26.7079 32.1802 26.9224 32.2693 27.0805 32.4278C27.2386 32.5863 27.3275 32.8013 27.3275 33.0254ZM7.93919 33.8706C8.90341 33.8716 9.84724 34.1489 10.6594 34.6698C11.4716 35.1908 12.1182 35.9336 12.523 36.8108L10.8511 37.2678C10.4414 36.5645 9.79059 36.0346 9.01994 35.7767C8.24929 35.5189 7.4114 35.5507 6.66243 35.8663C5.91345 36.1818 5.30451 36.7596 4.9491 37.4919C4.59369 38.2242 4.51606 39.061 4.73068 39.8465C4.94531 40.6319 5.43753 41.3123 6.11562 41.7608C6.79371 42.2094 7.61139 42.3955 8.41625 42.2845C9.22112 42.1735 9.95825 41.7729 10.4903 41.1574C11.0223 40.542 11.3128 39.7536 11.3078 38.9392C11.3078 38.9238 11.3078 38.91 11.3078 38.8946L12.972 38.4385C12.9883 38.6103 12.9977 38.7692 12.9977 38.9384C12.9977 39.9407 12.7012 40.9205 12.1456 41.7539C11.5901 42.5873 10.8004 43.2368 9.87659 43.6204C8.95274 44.0039 7.93615 44.1043 6.95539 43.9088C5.97464 43.7132 5.07375 43.2306 4.36666 42.5218C3.65958 41.8131 3.17804 40.9101 2.98296 39.9271C2.78787 38.944 2.888 37.9251 3.27067 36.999C3.65334 36.073 4.30138 35.2816 5.13282 34.7247C5.96427 34.1679 6.94179 33.8706 7.94176 33.8706H7.93919ZM7.12595 39.1626C7.18506 39.3786 7.32728 39.5622 7.52138 39.6732C7.71547 39.7841 7.94557 39.8133 8.16114 39.7544L9.56224 39.3713C9.46602 39.7288 9.25488 40.0445 8.96153 40.2696C8.66818 40.4947 8.30898 40.6166 7.93955 40.6163C7.57012 40.6161 7.21107 40.4938 6.918 40.2683C6.62493 40.0429 6.4142 39.7269 6.31842 39.3693C6.22265 39.0116 6.24718 38.6323 6.38823 38.2901C6.52927 37.9478 6.77895 37.6617 7.09861 37.4761C7.41826 37.2905 7.79006 37.2157 8.15643 37.2632C8.5228 37.3108 8.8633 37.4781 9.1252 37.7393L7.7181 38.1241C7.61092 38.153 7.51048 38.2028 7.42254 38.2706C7.3346 38.3385 7.26089 38.4231 7.20564 38.5196C7.15038 38.6161 7.11468 38.7225 7.10056 38.8329C7.08645 38.9432 7.0942 39.0552 7.12338 39.1626H7.12595Z" fill="#3F464C"/>
<path d="M43.7637 35.5593C43.0967 35.5593 42.4448 35.7575 41.8902 36.1289C41.3357 36.5003 40.9035 37.0281 40.6483 37.6458C40.3931 38.2634 40.3263 38.943 40.4564 39.5986C40.5865 40.2542 40.9077 40.8565 41.3793 41.3292C41.8509 41.8019 42.4517 42.1238 43.1058 42.2542C43.7599 42.3846 44.4379 42.3177 45.0541 42.0618C45.6702 41.806 46.1969 41.3728 46.5674 40.817C46.938 40.2612 47.1357 39.6077 47.1357 38.9392C47.1357 38.4953 47.0485 38.0558 46.879 37.6458C46.7096 37.2357 46.4612 36.8631 46.1481 36.5492C45.8349 36.2354 45.4632 35.9864 45.0541 35.8165C44.645 35.6467 44.2065 35.5593 43.7637 35.5593ZM43.7637 40.627C43.4303 40.6268 43.1045 40.5276 42.8274 40.3419C42.5503 40.1561 42.3344 39.8922 42.207 39.5835C42.0795 39.2747 42.0463 38.935 42.1114 38.6073C42.1765 38.2797 42.3371 37.9787 42.5729 37.7425C42.8087 37.5063 43.109 37.3455 43.436 37.2803C43.7629 37.2152 44.1018 37.2487 44.4098 37.3767C44.7177 37.5046 44.9809 37.7211 45.1661 37.9989C45.3513 38.2767 45.4501 38.6034 45.4501 38.9375C45.4504 39.1596 45.4069 39.3795 45.3222 39.5848C45.2376 39.79 45.1134 39.9765 44.9567 40.1336C44.8001 40.2907 44.6141 40.4153 44.4094 40.5002C44.2046 40.5852 43.9852 40.6289 43.7637 40.6287V40.627Z" fill="#3F464C"/>
<path d="M50.5073 38.094H50.449C50.3738 37.4837 50.2155 36.8866 49.9785 36.3194L50.0248 36.2919C50.1278 36.2404 50.2192 36.1683 50.2933 36.08C50.3675 35.9917 50.4228 35.8892 50.4559 35.7787C50.489 35.6682 50.4991 35.552 50.4858 35.4374C50.4724 35.3228 50.4357 35.2122 50.378 35.1123C50.3204 35.0124 50.2429 34.9254 50.1504 34.8567C50.0579 34.788 49.9524 34.739 49.8403 34.7127C49.7282 34.6864 49.6119 34.6834 49.4987 34.7039C49.3854 34.7244 49.2774 34.7679 49.1816 34.8317L49.1267 34.8627C48.7562 34.374 48.3211 33.938 47.8336 33.5665L47.8653 33.5116C47.96 33.3192 47.9782 33.0979 47.9162 32.8925C47.8542 32.6872 47.7166 32.5132 47.5313 32.4058C47.346 32.2984 47.1269 32.2657 46.9184 32.3142C46.7099 32.3628 46.5276 32.4889 46.4085 32.6672L46.3811 32.7127C45.8151 32.4755 45.2194 32.3172 44.6106 32.242V32.1836C44.6036 31.9642 44.5118 31.7562 44.3545 31.6035C44.1972 31.4508 43.9868 31.3654 43.7678 31.3654C43.5488 31.3654 43.3384 31.4508 43.1811 31.6035C43.0239 31.7562 42.932 31.9642 42.925 32.1836V32.242C42.3162 32.3172 41.7206 32.4756 41.1546 32.7127L41.128 32.6672C41.0769 32.5635 41.0052 32.4714 40.9171 32.3966C40.8291 32.3218 40.7267 32.2659 40.6163 32.2323C40.5058 32.1988 40.3897 32.1884 40.275 32.2017C40.1604 32.215 40.0497 32.2517 39.9498 32.3096C39.8499 32.3675 39.7629 32.4453 39.6942 32.5383C39.6255 32.6313 39.5766 32.7374 39.5505 32.85C39.5244 32.9627 39.5217 33.0795 39.5424 33.1933C39.5632 33.3071 39.607 33.4154 39.6712 33.5116L39.7029 33.5665C39.2155 33.9381 38.7805 34.3741 38.4098 34.8627L38.355 34.8317C38.2591 34.7679 38.1512 34.7244 38.0379 34.7039C37.9246 34.6834 37.8083 34.6864 37.6962 34.7127C37.5841 34.739 37.4786 34.788 37.3861 34.8567C37.2936 34.9254 37.2162 35.0124 37.1585 35.1123C37.1008 35.2122 37.0642 35.3228 37.0508 35.4374C37.0374 35.552 37.0475 35.6682 37.0806 35.7787C37.1137 35.8892 37.1691 35.9917 37.2432 36.08C37.3173 36.1683 37.4087 36.2404 37.5117 36.2919L37.558 36.3194C37.3211 36.8866 37.1628 37.4837 37.0875 38.094H37.0259C36.8022 38.094 36.5877 38.183 36.4296 38.3416C36.2715 38.5001 36.1826 38.715 36.1826 38.9392C36.1826 39.1634 36.2715 39.3783 36.4296 39.5368C36.5877 39.6953 36.8022 39.7844 37.0259 39.7844H37.0841C37.159 40.3947 37.3173 40.9919 37.5546 41.559L37.5074 41.5847C37.3468 41.6778 37.2212 41.8214 37.1502 41.9933C37.0792 42.1651 37.0668 42.3556 37.1148 42.5353C37.1629 42.715 37.2687 42.8738 37.4159 42.987C37.5631 43.1003 37.7435 43.1617 37.9291 43.1617C38.0773 43.1621 38.2228 43.1227 38.3507 43.0475L38.4055 43.0157C38.7761 43.5047 39.2111 43.9409 39.6986 44.3127L39.6669 44.3677C39.6032 44.4638 39.5598 44.572 39.5394 44.6855C39.519 44.7991 39.522 44.9156 39.5482 45.028C39.5744 45.1403 39.6233 45.2461 39.6919 45.3388C39.7604 45.4315 39.8472 45.5091 39.9468 45.5669C40.0465 45.6248 40.1568 45.6615 40.2712 45.6749C40.3855 45.6883 40.5014 45.6782 40.6117 45.645C40.7219 45.6118 40.8242 45.5564 40.9123 45.482C41.0004 45.4077 41.0723 45.3161 41.1237 45.2129L41.1512 45.1665C41.7169 45.4043 42.3127 45.5627 42.9216 45.6372V45.6965C42.9216 45.9206 43.0104 46.1356 43.1686 46.2941C43.3267 46.4526 43.5412 46.5417 43.7648 46.5417C43.9885 46.5417 44.203 46.4526 44.3611 46.2941C44.5192 46.1356 44.6081 45.9206 44.6081 45.6965V45.6372C45.217 45.5627 45.8128 45.4043 46.3785 45.1665L46.4059 45.2129C46.4573 45.3161 46.5293 45.4077 46.6174 45.482C46.7054 45.5564 46.8077 45.6118 46.918 45.645C47.0283 45.6782 47.1441 45.6883 47.2585 45.6749C47.3728 45.6615 47.4832 45.6248 47.5828 45.5669C47.6825 45.5091 47.7692 45.4315 47.8378 45.3388C47.9063 45.2461 47.9552 45.1403 47.9815 45.028C48.0077 44.9156 48.0107 44.7991 47.9903 44.6855C47.9699 44.572 47.9264 44.4638 47.8627 44.3677L47.8319 44.3127C48.3193 43.9408 48.7543 43.5045 49.125 43.0157L49.1798 43.0475C49.3076 43.1227 49.4533 43.1622 49.6015 43.1617C49.787 43.1617 49.9674 43.1003 50.1146 42.987C50.2618 42.8738 50.3677 42.715 50.4157 42.5353C50.4637 42.3556 50.4513 42.1651 50.3803 41.9933C50.3093 41.8214 50.1838 41.6778 50.0231 41.5847L49.9768 41.559C50.2139 40.9918 50.3722 40.3947 50.4473 39.7844H50.509C50.7326 39.7844 50.9471 39.6953 51.1052 39.5368C51.2633 39.3783 51.3522 39.1634 51.3522 38.9392C51.3522 38.715 51.2633 38.5001 51.1052 38.3416C50.9471 38.183 50.7326 38.094 50.509 38.094H50.5073ZM43.7631 44.0087C42.7632 44.0087 41.7856 43.7114 40.9542 43.1546C40.1227 42.5977 39.4747 41.8063 39.092 40.8803C38.7094 39.9542 38.6092 38.9353 38.8043 37.9522C38.9994 36.9692 39.4809 36.0662 40.188 35.3575C40.8951 34.6487 41.796 34.1661 42.7768 33.9705C43.7575 33.775 44.7741 33.8753 45.6979 34.2589C46.6218 34.6425 47.4114 35.292 47.967 36.1254C48.5226 36.9588 48.8191 37.9386 48.8191 38.9409C48.8191 40.2848 48.2865 41.5737 47.3385 42.524C46.3905 43.4744 45.1047 44.0084 43.764 44.0087H43.7631Z" fill="#3F464C"/>
<path d="M28.6426 2.00906C28.1581 1.38037 27.5356 0.871961 26.8235 0.523257C26.1114 0.174552 25.3287 -0.00508326 24.5361 -0.00172375C22.3723 0.1254 20.8393 1.96267 20.2685 2.75548C20.0885 3.01742 19.9857 3.32494 19.9721 3.64276L19.8864 5.44654C19.8671 5.8923 20.0238 6.32773 20.3225 6.6585L21.6422 8.10496L24.1539 10.8639C24.3124 11.0381 24.5053 11.1772 24.7205 11.2725C24.9356 11.3677 25.1682 11.417 25.4033 11.417C25.7468 11.4174 26.0817 11.3102 26.3614 11.1104C27.6391 10.2205 29.8217 8.36178 30.0934 5.93871C30.0926 5.90856 30.0943 5.87839 30.0985 5.84852V5.82275C30.1414 5.1198 30.0336 4.4158 29.7823 3.75811C29.531 3.10043 29.1421 2.50432 28.6417 2.00992L28.6426 2.00906ZM27.5106 7.75451L26.1395 5.73858C26.1088 5.69323 26.0938 5.639 26.097 5.58429C26.1002 5.52958 26.1213 5.47745 26.157 5.43597C26.1927 5.39449 26.2411 5.36597 26.2946 5.35484C26.3482 5.3437 26.4038 5.35057 26.4531 5.37439L28.2989 6.26854C28.1294 6.80846 27.8622 7.31248 27.5106 7.75537V7.75451ZM25.3931 9.72063L22.8822 6.96515L22.8368 6.91533L21.5668 5.52384L21.6362 3.73381C21.9644 3.27599 23.1479 1.77457 24.627 1.68781H24.7598C25.2765 1.73448 25.7778 1.88894 26.2315 2.1413C26.6851 2.39366 27.0811 2.73833 27.394 3.15317C27.7194 3.50101 27.9846 3.90073 28.179 4.33593L27.1806 3.85149C26.7973 3.66449 26.363 3.60971 25.9453 3.69567C25.5277 3.78162 25.1501 4.0035 24.8712 4.32679C24.5924 4.65008 24.4279 5.05666 24.4034 5.48331C24.3789 5.90997 24.4958 6.33278 24.7358 6.68599L26.31 9.00083C26.0163 9.25635 25.71 9.49687 25.3922 9.72149L25.3931 9.72063Z" fill="#3F464C"/>
<path d="M6.25195 48.1548C6.25195 48.379 6.34079 48.594 6.49893 48.7525C6.65706 48.911 6.87154 49 7.09518 49H39.9692C40.1928 49 40.4073 48.911 40.5654 48.7525C40.7235 48.594 40.8124 48.379 40.8124 48.1548C40.8124 47.9307 40.7235 47.7157 40.5654 47.5572C40.4073 47.3987 40.1928 47.3096 39.9692 47.3096H7.09518C6.98445 47.3096 6.8748 47.3315 6.77249 47.374C6.67019 47.4164 6.57723 47.4787 6.49893 47.5572C6.42063 47.6357 6.35852 47.7288 6.31614 47.8314C6.27376 47.9339 6.25195 48.0438 6.25195 48.1548Z" fill="#3F464C"/>
<path d="M1.19382 49H3.72265C3.94629 49 4.16077 48.911 4.3189 48.7525C4.47704 48.594 4.56588 48.379 4.56588 48.1548C4.56588 47.9307 4.47704 47.7157 4.3189 47.5572C4.16077 47.3987 3.94629 47.3096 3.72265 47.3096H1.19382C0.970178 47.3096 0.755699 47.3987 0.597562 47.5572C0.439426 47.7157 0.350586 47.9307 0.350586 48.1548C0.350586 48.379 0.439426 48.594 0.597562 48.7525C0.755699 48.911 0.970178 49 1.19382 49Z" fill="#3F464C"/>
</g>
<defs>
<clipPath id="clip0">
<rect width="51" height="49" fill="white" transform="translate(0.350586)"/>
</clipPath>
</defs>
</svg>
